<svg xmlns="http://www.w3.org/2000/svg" xmlns:xlink="http://www.w3.org/1999/xlink" width="100" zoomAndPan="magnify" viewBox="0 0 75 74.999997" height="100" preserveAspectRatio="xMidYMid meet" version="1.0"><defs><clipPath id="30f73556f2"><path d="M 6.015625 11 L 50 11 L 50 73.464844 L 6.015625 73.464844 Z M 6.015625 11 " clip-rule="nonzero"/></clipPath><clipPath id="15d733c8d9"><path d="M 24 1.464844 L 69 1.464844 L 69 65 L 24 65 Z M 24 1.464844 " clip-rule="nonzero"/></clipPath></defs><g clip-path="url(#30f73556f2)"><path fill="#2fb97d" d="M 45.074219 60.414062 L 38.988281 63.929688 C 38.058594 64.46875 36.9375 64.46875 36.011719 63.929688 L 15.351562 52.007812 C 14.421875 51.46875 13.855469 50.496094 13.855469 49.433594 L 13.855469 25.574219 C 13.855469 24.511719 14.421875 23.523438 15.351562 23 L 20.421875 20.066406 L 20.378906 11.03125 L 7.511719 18.46875 C 6.585938 19.007812 6.015625 19.976562 6.015625 21.039062 L 6.015625 53.953125 C 6.015625 55.011719 6.585938 56 7.511719 56.523438 L 36.011719 72.980469 C 36.9375 73.519531 38.058594 73.519531 38.988281 72.980469 L 49.847656 66.710938 Z M 45.074219 60.414062 " fill-opacity="1" fill-rule="nonzero"/></g><g clip-path="url(#15d733c8d9)"><path fill="#1ab69d" d="M 67.484375 18.46875 L 38.988281 2.011719 C 38.058594 1.472656 36.9375 1.472656 36.011719 2.011719 L 24.191406 8.832031 L 24.25 17.867188 L 36.023438 11.078125 C 36.953125 10.539062 38.074219 10.539062 39 11.078125 L 59.644531 23 C 60.574219 23.539062 61.140625 24.511719 61.140625 25.574219 L 61.140625 49.417969 C 61.140625 50.480469 60.574219 51.46875 59.644531 51.992188 L 54.738281 54.835938 L 54.46875 54.984375 L 53.707031 53.980469 L 39.71875 36.179688 L 50.773438 24.257812 L 41.019531 24.257812 L 31.867188 33.949219 L 31.867188 24.257812 L 24.296875 24.257812 L 24.296875 51.167969 L 31.867188 55.640625 L 31.867188 44.4375 L 34.722656 41.402344 L 47.527344 57.558594 L 48.292969 58.558594 L 53.125 64.84375 L 53.167969 64.8125 L 59.273438 61.28125 L 59.617188 61.085938 L 67.484375 56.554688 C 68.414062 56.015625 68.980469 55.042969 68.980469 53.980469 L 68.980469 21.070312 C 68.980469 19.976562 68.414062 18.992188 67.484375 18.46875 Z M 67.484375 18.46875 " fill-opacity="1" fill-rule="nonzero"/></g></svg>