<svg xmlns="http://www.w3.org/2000/svg" xmlns:xlink="http://www.w3.org/1999/xlink" width="156" zoomAndPan="magnify" viewBox="0 0 116.88 37.5" height="50" preserveAspectRatio="xMidYMid meet" version="1.0"><defs><g/><clipPath id="4200873302"><path d="M 0.710938 0 L 116.050781 0 L 116.050781 37.007812 L 0.710938 37.007812 Z M 0.710938 0 " clip-rule="nonzero"/></clipPath><clipPath id="ec78af6409"><path d="M 4.410156 7 L 22 7 L 22 31 L 4.410156 31 Z M 4.410156 7 " clip-rule="nonzero"/></clipPath><clipPath id="c042fb0481"><path d="M 11 3.699219 L 28.09375 3.699219 L 28.09375 28 L 11 28 Z M 11 3.699219 " clip-rule="nonzero"/></clipPath></defs><g clip-path="url(#4200873302)"><path fill="#ffffff" d="M 0.710938 0 L 116.171875 0 L 116.171875 37.007812 L 0.710938 37.007812 Z M 0.710938 0 " fill-opacity="1" fill-rule="nonzero"/><path fill="#ffffff" d="M 0.710938 0 L 116.171875 0 L 116.171875 37.007812 L 0.710938 37.007812 Z M 0.710938 0 " fill-opacity="1" fill-rule="nonzero"/></g><g clip-path="url(#ec78af6409)"><path fill="#2fb97d" d="M 19.230469 26.070312 L 16.921875 27.40625 C 16.570312 27.609375 16.144531 27.609375 15.792969 27.40625 L 7.953125 22.882812 C 7.601562 22.675781 7.386719 22.308594 7.386719 21.90625 L 7.386719 12.851562 C 7.386719 12.449219 7.601562 12.074219 7.953125 11.875 L 9.875 10.761719 L 9.859375 7.335938 L 4.976562 10.15625 C 4.625 10.359375 4.410156 10.730469 4.410156 11.132812 L 4.410156 23.621094 C 4.410156 24.023438 4.625 24.398438 4.976562 24.597656 L 15.792969 30.839844 C 16.144531 31.042969 16.570312 31.042969 16.921875 30.839844 L 21.042969 28.460938 Z M 19.230469 26.070312 " fill-opacity="1" fill-rule="nonzero"/></g><g clip-path="url(#c042fb0481)"><path fill="#1ab69d" d="M 27.734375 10.15625 L 16.921875 3.910156 C 16.570312 3.707031 16.144531 3.707031 15.792969 3.910156 L 11.308594 6.5 L 11.328125 9.929688 L 15.796875 7.351562 C 16.148438 7.148438 16.574219 7.148438 16.925781 7.351562 L 24.761719 11.875 C 25.113281 12.078125 25.328125 12.449219 25.328125 12.851562 L 25.328125 21.898438 C 25.328125 22.304688 25.113281 22.675781 24.761719 22.875 L 22.898438 23.953125 L 22.796875 24.011719 L 22.507812 23.632812 L 17.199219 16.875 L 21.394531 12.351562 L 17.695312 12.351562 L 14.21875 16.03125 L 14.21875 12.351562 L 11.347656 12.351562 L 11.347656 22.5625 L 14.21875 24.261719 L 14.21875 20.007812 L 15.304688 18.855469 L 20.164062 24.988281 L 20.453125 25.367188 L 22.285156 27.753906 L 22.300781 27.742188 L 24.617188 26.402344 L 24.75 26.328125 L 27.734375 24.609375 C 28.085938 24.402344 28.304688 24.035156 28.304688 23.632812 L 28.304688 11.144531 C 28.304688 10.730469 28.085938 10.355469 27.734375 10.15625 Z M 27.734375 10.15625 " fill-opacity="1" fill-rule="nonzero"/></g><g fill="#000000" fill-opacity="1"><g transform="translate(30.681791, 24.346726)"><g><path d="M 12.875 0 L 8.765625 0 L 3.9375 -5.5625 L 3.9375 0 L 0.953125 0 L 0.953125 -13.09375 L 3.9375 -13.09375 L 3.9375 -7.75 L 8.421875 -13.09375 L 12.046875 -13.09375 L 6.78125 -6.890625 Z M 12.875 0 "/></g></g></g><g fill="#000000" fill-opacity="1"><g transform="translate(43.164323, 24.346726)"><g><path d="M 9.1875 -3.6875 L 3.28125 -3.6875 C 3.28125 -3.113281 3.460938 -2.6875 3.828125 -2.40625 C 4.203125 -2.132812 4.609375 -2 5.046875 -2 C 5.503906 -2 5.863281 -2.054688 6.125 -2.171875 C 6.394531 -2.296875 6.695312 -2.539062 7.03125 -2.90625 L 9.0625 -1.890625 C 8.21875 -0.472656 6.8125 0.234375 4.84375 0.234375 C 3.613281 0.234375 2.554688 -0.179688 1.671875 -1.015625 C 0.796875 -1.859375 0.359375 -2.875 0.359375 -4.0625 C 0.359375 -5.25 0.796875 -6.265625 1.671875 -7.109375 C 2.554688 -7.953125 3.613281 -8.375 4.84375 -8.375 C 6.132812 -8.375 7.179688 -8 7.984375 -7.25 C 8.796875 -6.507812 9.203125 -5.445312 9.203125 -4.0625 C 9.203125 -3.875 9.195312 -3.75 9.1875 -3.6875 Z M 3.359375 -5.234375 L 6.46875 -5.234375 C 6.394531 -5.660156 6.222656 -5.988281 5.953125 -6.21875 C 5.691406 -6.445312 5.347656 -6.5625 4.921875 -6.5625 C 4.453125 -6.5625 4.078125 -6.4375 3.796875 -6.1875 C 3.523438 -5.945312 3.378906 -5.628906 3.359375 -5.234375 Z M 3.359375 -5.234375 "/></g></g></g><g fill="#000000" fill-opacity="1"><g transform="translate(52.728457, 24.346726)"><g><path d="M 0.953125 0 L 0.953125 -13.65625 L 3.765625 -13.65625 L 3.765625 0 Z M 0.953125 0 "/></g></g></g><g fill="#000000" fill-opacity="1"><g transform="translate(57.439151, 24.346726)"><g><path d="M 1.5 -1 C 0.738281 -1.832031 0.359375 -2.851562 0.359375 -4.0625 C 0.359375 -5.269531 0.738281 -6.289062 1.5 -7.125 C 2.269531 -7.957031 3.238281 -8.375 4.40625 -8.375 C 5.488281 -8.375 6.378906 -8.035156 7.078125 -7.359375 L 7.078125 -8.140625 L 9.890625 -8.140625 L 9.890625 0 L 7.109375 0 L 7.109375 -0.921875 L 7.078125 -0.921875 C 6.378906 -0.148438 5.488281 0.234375 4.40625 0.234375 C 3.238281 0.234375 2.269531 -0.175781 1.5 -1 Z M 3.890625 -5.4375 C 3.523438 -5.082031 3.34375 -4.625 3.34375 -4.0625 C 3.34375 -3.5 3.515625 -3.039062 3.859375 -2.6875 C 4.210938 -2.332031 4.675781 -2.15625 5.25 -2.15625 C 5.800781 -2.15625 6.253906 -2.332031 6.609375 -2.6875 C 6.960938 -3.050781 7.140625 -3.507812 7.140625 -4.0625 C 7.140625 -4.625 6.957031 -5.082031 6.59375 -5.4375 C 6.226562 -5.800781 5.78125 -5.984375 5.25 -5.984375 C 4.707031 -5.984375 4.253906 -5.800781 3.890625 -5.4375 Z M 3.890625 -5.4375 "/></g></g></g><g fill="#000000" fill-opacity="1"><g transform="translate(68.272147, 24.346726)"><g><path d="M 4.5 -8.375 C 4.957031 -8.375 5.414062 -8.320312 5.875 -8.21875 C 6.332031 -8.113281 6.671875 -8.007812 6.890625 -7.90625 L 7.21875 -7.75 L 6.296875 -5.90625 C 5.660156 -6.238281 5.0625 -6.40625 4.5 -6.40625 C 4.175781 -6.40625 3.945312 -6.367188 3.8125 -6.296875 C 3.6875 -6.234375 3.625 -6.109375 3.625 -5.921875 C 3.625 -5.878906 3.628906 -5.835938 3.640625 -5.796875 C 3.648438 -5.753906 3.671875 -5.710938 3.703125 -5.671875 C 3.734375 -5.640625 3.757812 -5.609375 3.78125 -5.578125 C 3.8125 -5.554688 3.859375 -5.523438 3.921875 -5.484375 C 3.984375 -5.453125 4.03125 -5.425781 4.0625 -5.40625 C 4.101562 -5.394531 4.164062 -5.375 4.25 -5.34375 C 4.332031 -5.3125 4.394531 -5.285156 4.4375 -5.265625 C 4.488281 -5.253906 4.5625 -5.234375 4.65625 -5.203125 C 4.757812 -5.171875 4.835938 -5.148438 4.890625 -5.140625 C 5.210938 -5.046875 5.492188 -4.941406 5.734375 -4.828125 C 5.984375 -4.710938 6.242188 -4.550781 6.515625 -4.34375 C 6.785156 -4.144531 6.992188 -3.890625 7.140625 -3.578125 C 7.285156 -3.273438 7.359375 -2.929688 7.359375 -2.546875 C 7.359375 -0.691406 6.078125 0.234375 3.515625 0.234375 C 2.929688 0.234375 2.375 0.144531 1.84375 -0.03125 C 1.320312 -0.207031 0.945312 -0.390625 0.71875 -0.578125 L 0.359375 -0.859375 L 1.515625 -2.78125 C 1.597656 -2.707031 1.707031 -2.617188 1.84375 -2.515625 C 1.976562 -2.410156 2.222656 -2.269531 2.578125 -2.09375 C 2.941406 -1.925781 3.257812 -1.84375 3.53125 -1.84375 C 4.101562 -1.84375 4.390625 -2.035156 4.390625 -2.421875 C 4.390625 -2.609375 4.316406 -2.75 4.171875 -2.84375 C 4.023438 -2.945312 3.773438 -3.0625 3.421875 -3.1875 C 3.066406 -3.3125 2.789062 -3.429688 2.59375 -3.546875 C 2.082031 -3.804688 1.675781 -4.101562 1.375 -4.4375 C 1.082031 -4.769531 0.9375 -5.210938 0.9375 -5.765625 C 0.9375 -6.585938 1.253906 -7.226562 1.890625 -7.6875 C 2.535156 -8.144531 3.40625 -8.375 4.5 -8.375 Z M 4.5 -8.375 "/></g></g></g><g fill="#000000" fill-opacity="1"><g transform="translate(78.330904, 25.057777)"><g><path d="M 15.34375 -11.21875 L 12.09375 0 L 10.4375 0 L 7.84375 -9.03125 L 5.140625 0 L 3.515625 0.015625 L 0.375 -11.21875 L 1.9375 -11.21875 L 4.375 -1.703125 L 7.078125 -11.21875 L 8.71875 -11.21875 L 11.296875 -1.734375 L 13.765625 -11.21875 Z M 15.34375 -11.21875 "/></g></g></g><g fill="#000000" fill-opacity="1"><g transform="translate(94.042403, 25.057777)"><g><path d="M 9.28125 -4.75 C 9.28125 -4.46875 9.265625 -4.171875 9.234375 -3.859375 L 2.1875 -3.859375 C 2.238281 -2.992188 2.535156 -2.316406 3.078125 -1.828125 C 3.617188 -1.335938 4.273438 -1.09375 5.046875 -1.09375 C 5.679688 -1.09375 6.210938 -1.238281 6.640625 -1.53125 C 7.066406 -1.832031 7.363281 -2.226562 7.53125 -2.71875 L 9.109375 -2.71875 C 8.867188 -1.875 8.394531 -1.1875 7.6875 -0.65625 C 6.976562 -0.125 6.097656 0.140625 5.046875 0.140625 C 4.210938 0.140625 3.460938 -0.046875 2.796875 -0.421875 C 2.140625 -0.796875 1.625 -1.328125 1.25 -2.015625 C 0.875 -2.710938 0.6875 -3.515625 0.6875 -4.421875 C 0.6875 -5.335938 0.867188 -6.140625 1.234375 -6.828125 C 1.597656 -7.515625 2.109375 -8.039062 2.765625 -8.40625 C 3.429688 -8.78125 4.191406 -8.96875 5.046875 -8.96875 C 5.890625 -8.96875 6.628906 -8.785156 7.265625 -8.421875 C 7.910156 -8.054688 8.40625 -7.550781 8.75 -6.90625 C 9.101562 -6.269531 9.28125 -5.550781 9.28125 -4.75 Z M 7.765625 -5.046875 C 7.765625 -5.609375 7.640625 -6.085938 7.390625 -6.484375 C 7.148438 -6.890625 6.816406 -7.195312 6.390625 -7.40625 C 5.972656 -7.613281 5.503906 -7.71875 4.984375 -7.71875 C 4.242188 -7.71875 3.613281 -7.484375 3.09375 -7.015625 C 2.570312 -6.546875 2.273438 -5.890625 2.203125 -5.046875 Z M 7.765625 -5.046875 "/></g></g></g><g fill="#000000" fill-opacity="1"><g transform="translate(104.023066, 25.057777)"><g><path d="M 2.703125 -7.171875 C 3.003906 -7.703125 3.441406 -8.132812 4.015625 -8.46875 C 4.597656 -8.800781 5.257812 -8.96875 6 -8.96875 C 6.789062 -8.96875 7.503906 -8.78125 8.140625 -8.40625 C 8.773438 -8.03125 9.273438 -7.5 9.640625 -6.8125 C 10.003906 -6.132812 10.1875 -5.34375 10.1875 -4.4375 C 10.1875 -3.550781 10.003906 -2.757812 9.640625 -2.0625 C 9.273438 -1.363281 8.769531 -0.820312 8.125 -0.4375 C 7.488281 -0.0507812 6.78125 0.140625 6 0.140625 C 5.238281 0.140625 4.570312 -0.0234375 4 -0.359375 C 3.425781 -0.691406 2.992188 -1.113281 2.703125 -1.625 L 2.703125 0 L 1.234375 0 L 1.234375 -11.90625 L 2.703125 -11.90625 Z M 8.6875 -4.4375 C 8.6875 -5.101562 8.550781 -5.679688 8.28125 -6.171875 C 8.019531 -6.671875 7.660156 -7.046875 7.203125 -7.296875 C 6.742188 -7.554688 6.242188 -7.6875 5.703125 -7.6875 C 5.160156 -7.6875 4.660156 -7.554688 4.203125 -7.296875 C 3.753906 -7.035156 3.390625 -6.65625 3.109375 -6.15625 C 2.835938 -5.65625 2.703125 -5.078125 2.703125 -4.421875 C 2.703125 -3.753906 2.835938 -3.171875 3.109375 -2.671875 C 3.390625 -2.179688 3.753906 -1.800781 4.203125 -1.53125 C 4.660156 -1.269531 5.160156 -1.140625 5.703125 -1.140625 C 6.242188 -1.140625 6.742188 -1.269531 7.203125 -1.53125 C 7.660156 -1.800781 8.019531 -2.179688 8.28125 -2.671875 C 8.550781 -3.171875 8.6875 -3.757812 8.6875 -4.4375 Z M 8.6875 -4.4375 "/></g></g></g></svg>